<?xml version="1.0" encoding="utf-8"?>
<!-- Generator: Adobe Illustrator 26.1.0, SVG Export Plug-In . SVG Version: 6.00 Build 0)  -->
<svg version="1.1" id="Слой_1" xmlns="http://www.w3.org/2000/svg" xmlns:xlink="http://www.w3.org/1999/xlink" x="0px" y="0px"
	 viewBox="0 0 100 100" style="enable-background:new 0 0 100 100;" xml:space="preserve">
<style type="text/css">
	.st0{fill:#0457A2;}
	.st1{fill:#5CACE0;}
	.st2{fill:#67C6F1;}
</style>
<path class="st0" d="M94.51,50c0,7.56-1.88,14.67-5.21,20.91C81.82,84.95,67.03,94.51,50,94.51s-31.82-9.56-39.31-23.6
	C7.37,64.68,5.49,57.56,5.49,50C5.49,25.42,25.42,5.49,50,5.49C74.58,5.49,94.51,25.42,94.51,50z"/>
<path class="st1" d="M89.31,70.91C81.82,84.95,67.03,94.51,50,94.51s-31.82-9.56-39.31-23.6C18.25,56.96,33.02,47.48,50,47.48
	S81.75,56.96,89.31,70.91z"/>
<circle class="st2" cx="50" cy="26.98" r="19.06"/>
</svg>
